<?xml version="1.0" encoding="UTF-8" standalone="no"?>
<!-- Created with Inkscape (http://www.inkscape.org/) -->

<svg
   version="1.1"
   id="svg55"
   width="225"
   height="225"
   viewBox="0 0 225 225"
   xmlns="http://www.w3.org/2000/svg"
   xmlns:svg="http://www.w3.org/2000/svg">
  <defs
     id="defs59" />
  <g
     id="g729">
    <path
       style="fill:#000000"
       d="m 98.01573,185.75 c 0.0087,-0.6875 1.807081,-10.25 3.99651,-21.25 3.4318,-17.24186 3.98126,-21.82727 3.98427,-33.25 L 106,118 H 94.179327 c -10.7117,0 -32.776738,3.47925 -53.929327,8.50366 L 38,127.0381 V 112.5 97.961896 l 2.25,0.534446 C 61.402589,103.52075 83.467627,107 94.179327,107 H 106 L 105.997,93.75 C 105.9935,82.327271 105.44404,77.741855 102.01224,60.5 99.822811,49.5 98.024381,39.9375 98.01573,39.25 98.003886,38.308775 101.45828,38 112,38 c 10.53519,0 13.99914,0.309358 13.99651,1.25 -0.002,0.6875 -1.79484,10.25 -3.98427,21.25 -3.42242,17.19474 -3.98299,21.858485 -3.99651,33.25 L 118,107 h 12.32067 c 11.24899,0 32.81194,-3.36884 54.42933,-8.503658 L 187,97.961896 V 112.5 127.0381 l -2.25,-0.53444 C 163.13261,121.36884 141.56966,118 130.32067,118 H 118 l 0.0157,13.25 c 0.0135,11.39152 0.57409,16.05526 3.99651,33.25 2.18943,11 3.98235,20.5625 3.98427,21.25 0.003,0.94064 -3.46132,1.25 -13.99651,1.25 -10.54172,0 -13.996114,-0.30877 -13.98427,-1.25 z"
       id="path718" />
    <path
       id="path225"
       style="fill:#000000"
       d="M 0.58789062 110.93164 C 0.064174726 165.85528 40.468797 217.33122 99.511719 223.94727 C 169.96796 231.84224 225.28704 174.65307 224.54688 110.93164 L 209.8125 110.93164 C 210.07548 152.88498 184.04429 194.68196 137.5 207.09961 C 77.263462 223.17025 17.558199 178.66177 15.294922 116 C 15.233092 114.28817 15.274674 112.61356 15.294922 110.93164 L 0.58789062 110.93164 z " />
  </g>
</svg>
