<?xml version="1.0" encoding="UTF-8" standalone="no"?>
<!-- Created with Inkscape (http://www.inkscape.org/) -->

<svg
   version="1.1"
   id="svg547"
   width="225"
   height="225"
   viewBox="0 0 225 225"
   xmlns="http://www.w3.org/2000/svg"
   xmlns:svg="http://www.w3.org/2000/svg">
  <defs
     id="defs551" />
  <g
     id="g553">
    <path
       style="fill:#000000"
       d="M 67,207.17228 C 29.907364,194.92225 16.886353,148.81358 41.436852,116.65067 L 44.98679,112 41.532155,107.47418 C 22.150824,82.083257 25.391184,49.208095 49.441742,27.227239 75.823802,3.115523 124.65356,14.454446 165.65479,54.213464 179.9089,68.035719 180,68.069292 180,59.5 V 53 h 7 7 V 67.5 82 h -6.34225 -6.34225 l -7.74922,-7.40512 C 113.04864,16.764455 58.832229,27.381734 52.773021,98.25 44.908908,190.22837 104.05851,215.34045 173.73977,149.60667 L 180.7432,143 H 187.3716 194 v 14 14 h -7 -7 v -6.5 c 0,-8.54429 -0.0301,-8.53309 -14.4614,5.3842 C 134.13427,200.16994 92.967103,215.74804 67,207.17228 Z M 90,168.33186 C 72.229848,161.02207 77.150154,135 96.302457,135 c 21.767373,0 22.697213,32.56888 0.960981,33.65966 C 94.093547,168.81874 90.825,168.67122 90,168.33186 Z m 52.38391,-40.24498 c -13.48111,-6.12202 -13.48111,-25.05174 0,-31.173764 5.44876,-2.474382 9.25458,-2.386842 14.64613,0.336884 19.89878,10.05256 5.64965,40.05358 -14.64613,30.83688 z M 90,91.331859 C 76.304688,85.698262 75.393324,64.911872 88.599703,59.393895 108.11236,51.240986 122.64774,76.721349 105.70165,89.373429 102.99038,91.397684 93.145212,92.625649 90,91.331859 Z"
       id="path575" />
  </g>
</svg>
