<?xml version="1.0" encoding="UTF-8" standalone="no"?>
<!-- Created with Inkscape (http://www.inkscape.org/) -->

<svg
   version="1.1"
   id="svg442"
   width="225"
   height="225"
   viewBox="0 0 225 225"
   xmlns="http://www.w3.org/2000/svg"
   xmlns:svg="http://www.w3.org/2000/svg">
  <defs
     id="defs446" />
  <g
     id="g448">
    <path
       style="fill:#000000"
       d="m 98,185.67933 c 0,-0.72637 1.8,-10.25707 4,-21.17933 3.4726,-17.24029 4,-21.61498 4,-33.17933 V 118 l -11.75,0.005 c -9.831721,0.004 -15.341671,0.71725 -33.75,4.36894 l -22,4.36417 -0.292887,-7.41465 c -0.161088,-4.07805 -0.161088,-10.48522 0,-14.23815 L 38.5,98.261579 l 22,4.364441 c 18.408934,3.65204 23.917956,4.36522 33.75,4.36921 L 106,107 V 93.679327 C 106,82.114984 105.4726,77.740291 102,60.5 99.8,49.577741 98,40.047043 98,39.320673 98,38.289331 101.0671,38 112,38 c 7.7,0 14,0.369303 14,0.820673 0,0.45137 -1.8,9.757068 -4,20.679327 -3.5158,17.454757 -4,21.53165 -4,33.679327 V 107 h 12.30566 c 10.54089,0 15.41686,-0.62513 34,-4.35899 L 186,98.282028 V 112.5 126.71797 l -21.69434,-4.35898 C 145.72252,118.62513 140.84655,118 130.30566,118 H 118 v 13.82067 c 0,12.14768 0.4842,16.22457 4,33.67933 2.2,10.92226 4,20.22796 4,20.67933 0,0.45137 -6.3,0.82067 -14,0.82067 -10.9329,0 -14,-0.28933 -14,-1.32067 z"
       id="path452" />
  </g>
</svg>
